<svg xmlns="http://www.w3.org/2000/svg" xmlns:xlink="http://www.w3.org/1999/xlink" width="500" zoomAndPan="magnify" viewBox="0 0 375 374.999991" height="500" preserveAspectRatio="xMidYMid meet" version="1.0"><defs><clipPath id="2471b02850"><path d="M 3.859375 22 L 371.128906 22 L 371.128906 353 L 3.859375 353 Z M 3.859375 22 " clip-rule="nonzero"/></clipPath><clipPath id="15a2213e0a"><path d="M 370.242188 151.394531 C 366.992188 117.730469 354.453125 85.636719 334.03125 58.683594 L 333.746094 58.304688 C 323.285156 44.550781 310.945312 32.332031 297.097656 22.003906 C 309.664062 32.402344 320.695312 44.527344 329.875 58.011719 C 329.949219 58.109375 330.011719 58.203125 330.066406 58.296875 C 346.921875 83.160156 356.941406 112.015625 359.113281 141.976562 C 359.414062 146.167969 359.570312 150.402344 359.570312 154.679688 C 359.617188 184.734375 351.761719 214.269531 336.777344 240.316406 C 349.132812 174.929688 317.5625 109.101562 258.84375 77.796875 C 273.664062 86.703125 286.699219 98.285156 297.292969 111.953125 C 329.933594 154.175781 335.507812 211.367188 311.632812 259.113281 C 319.796875 210.84375 299.308594 162.210938 259.058594 134.34375 C 299.09375 166.917969 312.105469 222.410156 290.726562 269.386719 C 289.46875 272.171875 288.089844 274.882812 286.613281 277.527344 C 285.996094 278.640625 285.363281 279.714844 284.710938 280.800781 C 285.484375 276.941406 286.027344 273.035156 286.328125 269.117188 C 286.390625 268.476562 286.421875 267.832031 286.460938 267.183594 C 286.566406 265.242188 286.636719 263.269531 286.636719 261.300781 C 286.660156 231.585938 273.339844 203.4375 250.34375 184.617188 C 285.886719 219.394531 286.515625 276.398438 251.730469 311.949219 C 246.664062 317.121094 241.003906 321.667969 234.851562 325.480469 C 234.007812 325.882812 233.125 326.191406 232.214844 326.402344 C 230.503906 326.847656 228.757812 327.128906 226.996094 327.234375 C 218.234375 327.210938 211.152344 320.097656 211.175781 311.339844 C 211.183594 306.230469 213.65625 301.441406 217.816406 298.472656 C 217.539062 298.273438 217.292969 298.0625 216.984375 297.832031 C 215.28125 296.371094 213.867188 294.601562 212.808594 292.613281 C 212.050781 291.207031 211.492188 289.699219 211.136719 288.136719 C 210.84375 286.84375 210.695312 285.515625 210.695312 284.191406 C 210.6875 278.953125 212.96875 273.972656 216.945312 270.554688 C 215.636719 269.425781 214.175781 268.492188 212.605469 267.777344 C 205.726562 271.921875 197.929688 274.304688 189.90625 274.730469 C 189.015625 274.785156 188.113281 274.808594 187.214844 274.808594 C 186.320312 274.808594 185.414062 274.808594 184.53125 274.730469 C 176.515625 274.304688 168.722656 271.921875 161.839844 267.777344 C 160.261719 268.492188 158.800781 269.425781 157.496094 270.554688 C 161.476562 273.964844 163.765625 278.953125 163.757812 284.191406 C 163.757812 287.125 163.039062 290.015625 161.667969 292.613281 C 160.617188 294.601562 159.203125 296.371094 157.496094 297.832031 C 157.300781 298.011719 157.101562 298.171875 156.898438 298.335938 C 164.097656 303.320312 165.890625 313.195312 160.90625 320.394531 C 157.949219 324.660156 153.09375 327.210938 147.90625 327.21875 C 146.144531 327.113281 144.398438 326.832031 142.679688 326.386719 C 141.777344 326.175781 140.894531 325.867188 140.050781 325.464844 C 97.804688 299.285156 84.777344 243.8125 110.957031 201.566406 C 114.792969 195.378906 119.355469 189.679688 124.566406 184.601562 C 101.703125 203.320312 88.398438 231.277344 88.28125 260.828125 L 88.28125 261.277344 C 88.28125 264.445312 88.425781 267.585938 88.722656 270.6875 C 89.046875 274.089844 89.539062 277.464844 90.214844 280.816406 C 89.703125 279.980469 89.199219 279.144531 88.714844 278.253906 C 61.46875 230.085938 72.933594 169.292969 115.859375 134.351562 C 75.601562 162.210938 55.105469 210.851562 63.285156 259.121094 C 30.796875 194.171875 53.804688 115.164062 116.082031 77.8125 C 57.421875 109.15625 25.863281 174.96875 38.179688 240.347656 C 23.210938 214.292969 15.347656 184.761719 15.394531 154.710938 C 15.394531 150.550781 15.546875 146.421875 15.84375 142.324219 C 17.960938 112.242188 27.988281 83.246094 44.921875 58.28125 C 44.976562 58.1875 45.039062 58.101562 45.105469 58.011719 C 54.277344 44.535156 65.308594 32.417969 77.867188 22.019531 C 64.035156 32.347656 51.710938 44.558594 41.257812 58.304688 C 41.164062 58.417969 41.0625 58.542969 40.976562 58.660156 C 20.457031 85.734375 7.894531 117.992188 4.699219 151.820312 C 4.144531 157.59375 3.867188 163.433594 3.867188 169.339844 C 3.933594 235.871094 39.910156 297.183594 97.945312 329.710938 C 100.535156 331.15625 103.164062 332.546875 105.832031 333.886719 C 124.703125 343.269531 145.070312 349.316406 166.007812 351.753906 C 167.050781 351.875 168.101562 351.992188 169.152344 352.09375 C 175.183594 352.695312 181.308594 352.996094 187.507812 352.996094 C 193.585938 352.996094 199.59375 352.71875 205.523438 352.164062 C 206.574219 352.0625 207.628906 351.953125 208.671875 351.839844 C 229.730469 349.417969 250.207031 343.355469 269.1875 333.921875 C 272.015625 332.515625 274.800781 331.039062 277.53125 329.484375 C 335.363281 296.949219 371.144531 235.753906 371.128906 169.402344 C 371.128906 163.339844 370.851562 157.355469 370.292969 151.441406 " clip-rule="nonzero"/></clipPath><clipPath id="6ff824d803"><path d="M 0.859375 0 L 368.128906 0 L 368.128906 331 L 0.859375 331 Z M 0.859375 0 " clip-rule="nonzero"/></clipPath><clipPath id="23584265a2"><path d="M 367.242188 129.394531 C 363.992188 95.730469 351.453125 63.636719 331.03125 36.683594 L 330.746094 36.304688 C 320.285156 22.550781 307.945312 10.332031 294.097656 0.00390625 C 306.664062 10.402344 317.695312 22.527344 326.875 36.011719 C 326.949219 36.109375 327.011719 36.203125 327.066406 36.296875 C 343.921875 61.160156 353.941406 90.015625 356.113281 119.976562 C 356.414062 124.167969 356.570312 128.402344 356.570312 132.679688 C 356.617188 162.734375 348.761719 192.269531 333.777344 218.316406 C 346.132812 152.929688 314.5625 87.101562 255.84375 55.796875 C 270.664062 64.703125 283.699219 76.285156 294.292969 89.953125 C 326.933594 132.175781 332.507812 189.367188 308.632812 237.113281 C 316.796875 188.84375 296.308594 140.210938 256.058594 112.34375 C 296.09375 144.917969 309.105469 200.410156 287.726562 247.386719 C 286.46875 250.171875 285.089844 252.882812 283.613281 255.527344 C 282.996094 256.640625 282.363281 257.714844 281.710938 258.800781 C 282.484375 254.941406 283.027344 251.035156 283.328125 247.117188 C 283.390625 246.476562 283.421875 245.832031 283.460938 245.183594 C 283.566406 243.242188 283.636719 241.269531 283.636719 239.300781 C 283.660156 209.585938 270.339844 181.4375 247.34375 162.617188 C 282.886719 197.394531 283.515625 254.398438 248.730469 289.949219 C 243.664062 295.121094 238.003906 299.667969 231.851562 303.480469 C 231.007812 303.882812 230.125 304.191406 229.214844 304.402344 C 227.503906 304.847656 225.757812 305.128906 223.996094 305.234375 C 215.234375 305.210938 208.152344 298.097656 208.175781 289.339844 C 208.183594 284.230469 210.65625 279.441406 214.816406 276.472656 C 214.539062 276.273438 214.292969 276.0625 213.984375 275.832031 C 212.28125 274.371094 210.867188 272.601562 209.808594 270.613281 C 209.050781 269.207031 208.492188 267.699219 208.136719 266.136719 C 207.84375 264.84375 207.695312 263.515625 207.695312 262.191406 C 207.6875 256.953125 209.96875 251.972656 213.945312 248.554688 C 212.636719 247.425781 211.175781 246.492188 209.605469 245.777344 C 202.726562 249.921875 194.929688 252.304688 186.90625 252.730469 C 186.015625 252.785156 185.113281 252.808594 184.214844 252.808594 C 183.320312 252.808594 182.414062 252.808594 181.53125 252.730469 C 173.515625 252.304688 165.722656 249.921875 158.839844 245.777344 C 157.261719 246.492188 155.800781 247.425781 154.496094 248.554688 C 158.476562 251.964844 160.765625 256.953125 160.757812 262.191406 C 160.757812 265.125 160.039062 268.015625 158.667969 270.613281 C 157.617188 272.601562 156.203125 274.371094 154.496094 275.832031 C 154.300781 276.011719 154.101562 276.171875 153.898438 276.335938 C 161.097656 281.320312 162.890625 291.195312 157.90625 298.394531 C 154.949219 302.660156 150.09375 305.210938 144.90625 305.21875 C 143.144531 305.113281 141.398438 304.832031 139.679688 304.386719 C 138.777344 304.175781 137.894531 303.867188 137.050781 303.464844 C 94.804688 277.285156 81.777344 221.8125 107.957031 179.566406 C 111.792969 173.378906 116.355469 167.679688 121.566406 162.601562 C 98.703125 181.320312 85.398438 209.277344 85.28125 238.828125 L 85.28125 239.277344 C 85.28125 242.445312 85.425781 245.585938 85.722656 248.6875 C 86.046875 252.089844 86.539062 255.464844 87.214844 258.816406 C 86.703125 257.980469 86.199219 257.144531 85.714844 256.253906 C 58.46875 208.085938 69.933594 147.292969 112.859375 112.351562 C 72.601562 140.210938 52.105469 188.851562 60.285156 237.121094 C 27.796875 172.171875 50.804688 93.164062 113.082031 55.8125 C 54.421875 87.15625 22.863281 152.96875 35.179688 218.347656 C 20.210938 192.292969 12.347656 162.761719 12.394531 132.710938 C 12.394531 128.550781 12.546875 124.421875 12.84375 120.324219 C 14.960938 90.242188 24.988281 61.246094 41.921875 36.28125 C 41.976562 36.1875 42.039062 36.101562 42.105469 36.011719 C 51.277344 22.535156 62.308594 10.417969 74.867188 0.0195312 C 61.035156 10.347656 48.710938 22.558594 38.257812 36.304688 C 38.164062 36.417969 38.0625 36.542969 37.976562 36.660156 C 17.457031 63.734375 4.894531 95.992188 1.699219 129.820312 C 1.144531 135.59375 0.867188 141.433594 0.867188 147.339844 C 0.933594 213.871094 36.910156 275.183594 94.945312 307.710938 C 97.535156 309.15625 100.164062 310.546875 102.832031 311.886719 C 121.703125 321.269531 142.070312 327.316406 163.007812 329.753906 C 164.050781 329.875 165.101562 329.992188 166.152344 330.09375 C 172.183594 330.695312 178.308594 330.996094 184.507812 330.996094 C 190.585938 330.996094 196.59375 330.71875 202.523438 330.164062 C 203.574219 330.0625 204.628906 329.953125 205.671875 329.839844 C 226.730469 327.417969 247.207031 321.355469 266.1875 311.921875 C 269.015625 310.515625 271.800781 309.039062 274.53125 307.484375 C 332.363281 274.949219 368.144531 213.753906 368.128906 147.402344 C 368.128906 141.339844 367.851562 135.355469 367.292969 129.441406 " clip-rule="nonzero"/></clipPath><clipPath id="fea48c7b6a"><rect x="0" width="369" y="0" height="331"/></clipPath><clipPath id="963072545b"><path d="M 192.125 124 L 240.734375 124 L 240.734375 189 L 192.125 189 Z M 192.125 124 " clip-rule="nonzero"/></clipPath><clipPath id="a8ea25edff"><path d="M 216.03125 166.292969 C 218.636719 173.1875 220.777344 180.25 222.441406 187.429688 L 222.71875 188.660156 C 222.851562 188.484375 222.988281 188.304688 223.113281 188.125 C 226.671875 183.316406 229.980469 178.332031 233.027344 173.179688 C 233.304688 172.734375 233.550781 172.277344 233.859375 171.828125 C 236.25 167.722656 238.476562 163.515625 240.535156 159.21875 C 226.792969 144.746094 210.582031 132.828125 192.667969 124.039062 C 201.804688 136.046875 209.273438 149.246094 214.863281 163.261719 C 215.273438 164.28125 215.699219 165.289062 216.046875 166.324219 " clip-rule="nonzero"/></clipPath><clipPath id="7bb4ba675c"><path d="M 0.480469 0 L 48.71875 0 L 48.71875 64.878906 L 0.480469 64.878906 Z M 0.480469 0 " clip-rule="nonzero"/></clipPath><clipPath id="0e10ddd3d0"><path d="M 24.03125 42.292969 C 26.636719 49.1875 28.777344 56.25 30.441406 63.429688 L 30.71875 64.660156 C 30.851562 64.484375 30.988281 64.304688 31.113281 64.125 C 34.671875 59.316406 37.980469 54.332031 41.027344 49.179688 C 41.304688 48.734375 41.550781 48.277344 41.859375 47.828125 C 44.25 43.722656 46.476562 39.515625 48.535156 35.21875 C 34.792969 20.746094 18.582031 8.828125 0.667969 0.0390625 C 9.804688 12.046875 17.273438 25.246094 22.863281 39.261719 C 23.273438 40.28125 23.699219 41.289062 24.046875 42.324219 " clip-rule="nonzero"/></clipPath><clipPath id="357875880c"><rect x="0" width="49" y="0" height="65"/></clipPath><clipPath id="83565fe50d"><path d="M 151.230469 121.53125 L 223.757812 121.53125 L 223.757812 271.988281 L 151.230469 271.988281 Z M 151.230469 121.53125 " clip-rule="nonzero"/></clipPath><clipPath id="2b659190f9"><path d="M 162.398438 165.3125 C 160.132812 171.21875 158.199219 177.242188 156.613281 183.363281 C 156.234375 184.824219 155.878906 186.285156 155.546875 187.769531 C 155.097656 189.726562 154.710938 191.691406 154.300781 193.664062 C 151.046875 210.671875 150.429688 228.078125 152.445312 245.28125 C 152.980469 249.878906 153.707031 254.410156 154.617188 258.878906 C 158.058594 261.925781 161.910156 264.476562 166.054688 266.464844 C 170.910156 268.777344 176.113281 270.285156 181.457031 270.910156 C 185.320312 271.359375 189.226562 271.359375 193.089844 270.910156 C 198.441406 270.285156 203.652344 268.777344 208.515625 266.464844 C 212.652344 264.46875 216.503906 261.917969 219.945312 258.878906 C 220.46875 256.3125 220.925781 253.714844 221.320312 251.101562 C 224.3125 231.5625 223.855469 211.65625 219.976562 192.277344 C 219.671875 190.761719 219.355469 189.261719 219.007812 187.769531 C 218.660156 186.277344 218.3125 184.824219 217.941406 183.363281 C 216.339844 177.203125 214.390625 171.140625 212.097656 165.203125 C 211.695312 164.144531 211.261719 163.097656 210.851562 162.054688 C 204.953125 147.613281 197.058594 134.066406 187.410156 121.804688 L 186.976562 121.996094 C 177.359375 134.238281 169.496094 147.765625 163.609375 162.179688 C 163.183594 163.222656 162.777344 164.265625 162.367188 165.320312 " clip-rule="nonzero"/></clipPath><clipPath id="c1d18a5e99"><path d="M 0.230469 0.679688 L 72.757812 0.679688 L 72.757812 150.441406 L 0.230469 150.441406 Z M 0.230469 0.679688 " clip-rule="nonzero"/></clipPath><clipPath id="31e0ac95ea"><path d="M 11.398438 44.3125 C 9.132812 50.21875 7.199219 56.242188 5.613281 62.363281 C 5.234375 63.824219 4.878906 65.285156 4.546875 66.769531 C 4.097656 68.726562 3.710938 70.691406 3.300781 72.664062 C 0.046875 89.671875 -0.570312 107.078125 1.445312 124.28125 C 1.980469 128.878906 2.707031 133.410156 3.617188 137.878906 C 7.058594 140.925781 10.910156 143.476562 15.054688 145.464844 C 19.910156 147.777344 25.113281 149.285156 30.457031 149.910156 C 34.320312 150.359375 38.226562 150.359375 42.089844 149.910156 C 47.441406 149.285156 52.652344 147.777344 57.515625 145.464844 C 61.652344 143.46875 65.503906 140.917969 68.945312 137.878906 C 69.46875 135.3125 69.925781 132.714844 70.320312 130.101562 C 73.3125 110.5625 72.855469 90.65625 68.976562 71.277344 C 68.671875 69.761719 68.355469 68.261719 68.007812 66.769531 C 67.660156 65.277344 67.3125 63.824219 66.941406 62.363281 C 65.339844 56.203125 63.390625 50.140625 61.097656 44.203125 C 60.695312 43.144531 60.261719 42.097656 59.851562 41.054688 C 53.953125 26.613281 46.058594 13.066406 36.410156 0.804688 L 35.976562 0.996094 C 26.359375 13.238281 18.496094 26.765625 12.609375 41.179688 C 12.183594 42.222656 11.777344 43.265625 11.367188 44.320312 " clip-rule="nonzero"/></clipPath><clipPath id="1de9dcadc0"><rect x="0" width="73" y="0" height="151"/></clipPath><clipPath id="f89989e426"><path d="M 135.027344 124.617188 L 182 124.617188 L 182 190 L 135.027344 190 Z M 135.027344 124.617188 " clip-rule="nonzero"/></clipPath><clipPath id="9e5760a077"><path d="M 141.816406 173.21875 C 144.566406 178.539062 147.589844 183.71875 150.867188 188.722656 L 151.542969 189.75 C 151.710938 188.992188 151.875 188.234375 152.050781 187.46875 C 153.707031 180.332031 155.832031 173.320312 158.40625 166.460938 C 158.785156 165.433594 159.179688 164.421875 159.582031 163.402344 C 165.09375 149.585938 172.417969 136.5625 181.363281 124.679688 C 164.089844 133.347656 148.433594 144.921875 135.082031 158.894531 C 136.898438 163.300781 138.882812 167.613281 141.050781 171.835938 C 141.289062 172.300781 141.519531 172.773438 141.777344 173.226562 " clip-rule="nonzero"/></clipPath><clipPath id="b30d43d75b"><path d="M 0.0273438 0.617188 L 46.441406 0.617188 L 46.441406 65.839844 L 0.0273438 65.839844 Z M 0.0273438 0.617188 " clip-rule="nonzero"/></clipPath><clipPath id="0a13cfa7aa"><path d="M 6.816406 49.21875 C 9.566406 54.539062 12.589844 59.71875 15.867188 64.722656 L 16.542969 65.75 C 16.710938 64.992188 16.875 64.234375 17.050781 63.46875 C 18.707031 56.332031 20.832031 49.320312 23.40625 42.460938 C 23.785156 41.433594 24.179688 40.421875 24.582031 39.402344 C 30.09375 25.585938 37.417969 12.5625 46.363281 0.679688 C 29.089844 9.347656 13.433594 20.921875 0.0820312 34.894531 C 1.898438 39.300781 3.882812 43.613281 6.050781 47.835938 C 6.289062 48.300781 6.519531 48.773438 6.777344 49.226562 " clip-rule="nonzero"/></clipPath><clipPath id="1d40b990c1"><rect x="0" width="47" y="0" height="66"/></clipPath><clipPath id="b302ae03ff"><path d="M 151.230469 272 L 160.488281 272 L 160.488281 296.679688 L 151.230469 296.679688 Z M 151.230469 272 " clip-rule="nonzero"/></clipPath><clipPath id="b511ab2c9a"><path d="M 155.777344 296.054688 C 157.78125 293.789062 159.179688 291.050781 159.828125 288.097656 C 160.125 286.800781 160.269531 285.476562 160.261719 284.148438 C 160.269531 279.761719 158.671875 275.535156 155.761719 272.246094 C 155.390625 272.65625 155.042969 273.082031 154.726562 273.53125 C 149.738281 280.351562 150.164062 289.730469 155.761719 296.0625 " clip-rule="nonzero"/></clipPath><clipPath id="10eddb5170"><path d="M 0.230469 0.160156 L 9.320312 0.160156 L 9.320312 24.160156 L 0.230469 24.160156 Z M 0.230469 0.160156 " clip-rule="nonzero"/></clipPath><clipPath id="6f67432146"><path d="M 4.777344 24.054688 C 6.78125 21.789062 8.179688 19.050781 8.828125 16.097656 C 9.125 14.800781 9.269531 13.476562 9.261719 12.148438 C 9.269531 7.761719 7.671875 3.535156 4.761719 0.246094 C 4.390625 0.65625 4.042969 1.082031 3.726562 1.53125 C -1.261719 8.351562 -0.835938 17.730469 4.761719 24.0625 " clip-rule="nonzero"/></clipPath><clipPath id="e04eedf6cb"><rect x="0" width="10" y="0" height="25"/></clipPath><clipPath id="a15784a303"><path d="M 214 272 L 223.757812 272 L 223.757812 296.679688 L 214 296.679688 Z M 214 272 " clip-rule="nonzero"/></clipPath><clipPath id="56ad1a7521"><path d="M 218.652344 296.070312 C 224.242188 289.738281 224.675781 280.359375 219.6875 273.539062 C 219.371094 273.089844 219.023438 272.65625 218.652344 272.253906 C 215.753906 275.542969 214.152344 279.769531 214.152344 284.15625 C 214.144531 285.484375 214.292969 286.808594 214.585938 288.097656 C 215.242188 291.050781 216.632812 293.789062 218.636719 296.054688 " clip-rule="nonzero"/></clipPath><clipPath id="2d16042a88"><path d="M 0.078125 0.160156 L 9.757812 0.160156 L 9.757812 24.160156 L 0.078125 24.160156 Z M 0.078125 0.160156 " clip-rule="nonzero"/></clipPath><clipPath id="28c9f6d62b"><path d="M 4.652344 24.070312 C 10.242188 17.738281 10.675781 8.359375 5.6875 1.539062 C 5.371094 1.089844 5.023438 0.65625 4.652344 0.253906 C 1.753906 3.542969 0.152344 7.769531 0.152344 12.15625 C 0.144531 13.484375 0.292969 14.808594 0.585938 16.097656 C 1.242188 19.050781 2.632812 21.789062 4.636719 24.054688 " clip-rule="nonzero"/></clipPath><clipPath id="de9cd49fcb"><rect x="0" width="10" y="0" height="25"/></clipPath></defs><g clip-path="url(#2471b02850)"><g clip-path="url(#15a2213e0a)"><g transform="matrix(1, 0, 0, 1, 3, 22)"><g clip-path="url(#fea48c7b6a)"><g clip-path="url(#6ff824d803)"><g clip-path="url(#23584265a2)"><rect x="-85.5" width="540" fill="#09becf" height="539.999987" y="-104.499998" fill-opacity="1"/></g></g></g></g></g></g><g clip-path="url(#963072545b)"><g clip-path="url(#a8ea25edff)"><g transform="matrix(1, 0, 0, 1, 192, 124)"><g clip-path="url(#357875880c)"><g clip-path="url(#7bb4ba675c)"><g clip-path="url(#0e10ddd3d0)"><rect x="-274.5" width="540" fill="#09becf" height="539.999987" y="-206.499998" fill-opacity="1"/></g></g></g></g></g></g><g clip-path="url(#83565fe50d)"><g clip-path="url(#2b659190f9)"><g transform="matrix(1, 0, 0, 1, 151, 121)"><g clip-path="url(#1de9dcadc0)"><g clip-path="url(#c1d18a5e99)"><g clip-path="url(#31e0ac95ea)"><rect x="-233.5" width="540" fill="#09becf" height="539.999987" y="-203.499998" fill-opacity="1"/></g></g></g></g></g></g><g clip-path="url(#f89989e426)"><g clip-path="url(#9e5760a077)"><g transform="matrix(1, 0, 0, 1, 135, 124)"><g clip-path="url(#1d40b990c1)"><g clip-path="url(#b30d43d75b)"><g clip-path="url(#0a13cfa7aa)"><rect x="-217.5" width="540" fill="#09becf" height="539.999987" y="-206.499998" fill-opacity="1"/></g></g></g></g></g></g><g clip-path="url(#b302ae03ff)"><g clip-path="url(#b511ab2c9a)"><g transform="matrix(1, 0, 0, 1, 151, 272)"><g clip-path="url(#e04eedf6cb)"><g clip-path="url(#10eddb5170)"><g clip-path="url(#6f67432146)"><rect x="-233.5" width="540" fill="#09becf" height="539.999987" y="-354.499998" fill-opacity="1"/></g></g></g></g></g></g><g clip-path="url(#a15784a303)"><g clip-path="url(#56ad1a7521)"><g transform="matrix(1, 0, 0, 1, 214, 272)"><g clip-path="url(#de9cd49fcb)"><g clip-path="url(#2d16042a88)"><g clip-path="url(#28c9f6d62b)"><rect x="-296.5" width="540" fill="#09becf" height="539.999987" y="-354.499998" fill-opacity="1"/></g></g></g></g></g></g></svg>